<?xml version="1.0" encoding="UTF-8" standalone="no"?>
<!-- Created with Inkscape (http://www.inkscape.org/) -->

<svg
   xmlns:dc="http://purl.org/dc/elements/1.1/"
   xmlns:cc="http://creativecommons.org/ns#"
   xmlns:rdf="http://www.w3.org/1999/02/22-rdf-syntax-ns#"
   xmlns:svg="http://www.w3.org/2000/svg"
   xmlns="http://www.w3.org/2000/svg"
   xmlns:sodipodi="http://sodipodi.sourceforge.net/DTD/sodipodi-0.dtd"
   xmlns:inkscape="http://www.inkscape.org/namespaces/inkscape"
   width="292.22223mm"
   height="121.83054mm"
   viewBox="0 0 292.22223 121.83054"
   version="1.1"
   id="svg8"
   inkscape:version="0.92.2 (5c3e80d, 2017-08-06)"
   sodipodi:docname="thank_you.svg">
  <defs
     id="defs2" />
  <sodipodi:namedview
     id="base"
     pagecolor="#ffffff"
     bordercolor="#666666"
     borderopacity="0.0"
     inkscape:pageopacity="0.0"
     inkscape:pageshadow="2"
     inkscape:zoom="1.2666801"
     inkscape:cx="552.23098"
     inkscape:cy="230.23095"
     inkscape:document-units="mm"
     inkscape:current-layer="layer1"
     showgrid="false"
     fit-margin-top="5"
     fit-margin-left="5"
     fit-margin-right="5"
     fit-margin-bottom="5"
     inkscape:window-width="1920"
     inkscape:window-height="1017"
     inkscape:window-x="-8"
     inkscape:window-y="-8"
     inkscape:window-maximized="1" />
  <metadata
     id="metadata5">
    <rdf:RDF>
      <cc:Work
         rdf:about="">
        <dc:format>image/svg+xml</dc:format>
        <dc:type
           rdf:resource="http://purl.org/dc/dcmitype/StillImage" />
        <dc:title></dc:title>
      </cc:Work>
    </rdf:RDF>
  </metadata>
  <g
     inkscape:label="Layer 1"
     inkscape:groupmode="layer"
     id="layer1"
     transform="translate(176.34921,-65.995444)">
    <path
       style="fill:none;stroke-width:0.35277778;stroke-opacity:0;"
       d="M -171.34921,126.91072 V 70.995444 H -30.238104 110.87302 v 55.915276 55.91527 H -30.238104 -171.34921 Z m 281.86945,0 V 71.348224 H -30.238104 -170.99643 v 55.562496 55.56249 H -30.238104 110.52024 Z m -258.36215,38.60356 c -0.75589,-0.59459 -0.92952,-1.025 -0.92952,-2.30424 0,-2.73627 1.75761,-13.49328 3.2219,-19.71877 2.29378,-9.75215 4.22287,-18.95477 4.01661,-19.16103 -0.31278,-0.31277 -5.499,0.99284 -7.50094,1.88835 -2.46003,1.10042 -3.61667,2.37948 -3.62333,4.00683 -0.0111,2.72701 -2.01897,4.44346 -4.85981,4.1546 -2.74597,-0.27923 -3.95115,-2.45354 -3.22827,-5.82424 1.05961,-4.94077 6.95291,-7.97929 19.02939,-9.81132 4.28295,-0.64974 13.92164,-0.86695 17.12634,-0.38595 l 1.78049,0.26724 0.81232,-1.672 c 1.89166,-3.8936 4.86624,-6.09442 8.23708,-6.09442 3.45239,0 4.86031,1.84872 4.97178,6.52836 l 0.0567,2.38118 3.65043,-0.2348 c 7.304956,-0.46986 18.067916,-2.77239 24.975116,-5.34297 1.91248,-0.71175 7.0491,-3.08845 11.41473,-5.28155 8.55556,-4.29796 10.15176,-4.9378 11.48401,-4.60343 0.71791,0.18018 0.86321,0.43272 0.86321,1.50026 0,3.54611 -10.33145,12.74011 -18.71693,16.65629 -6.7792,3.16601 -11.53039,4.25267 -19.73585,4.51385 -4.74882,0.15116 -7.090616,0.0615 -10.147036,-0.38849 -2.18538,-0.32174 -4.18999,-0.6681 -4.45468,-0.76967 -0.33309,-0.12782 -0.55749,0.22914 -0.72884,1.15939 -0.33982,1.84487 -3.03313,9.76885 -4.76345,14.01454 -0.78413,1.92404 -1.37952,3.54442 -1.32309,3.60086 0.0564,0.0564 0.95133,-1.18064 1.98867,-2.74905 2.11743,-3.20145 6.00692,-7.49264 7.48322,-8.25606 4.36169,-2.25553 5.76056,2.85098 2.8038,10.23516 -1.32569,3.31074 -1.81209,5.95242 -1.45434,7.89853 0.37742,2.05308 0.76325,2.38945 2.10385,1.83416 1.45195,-0.60142 4.944886,-4.17639 5.166076,-5.28741 1.77057,-8.89353 6.47982,-15.20108 12.00937,-16.08529 1.19997,-0.19188 1.57873,-0.085 2.52774,0.71359 0.95493,0.80351 1.33441,0.90901 2.62541,0.72985 0.83003,-0.11518 1.71926,-0.0693 1.97608,0.10198 0.68433,0.45638 1.18207,3.10638 0.96841,5.15588 -0.82898,7.95159 -0.91324,9.33517 -0.64576,10.604 0.42405,2.01153 1.3766,2.04414 3.46551,0.11866 3.27064,-3.01477 3.55734,-3.70728 3.84643,-9.29088 0.42038,-8.11936 0.8632,-9.46504 3.26278,-9.9152 2.94987,-0.5534 3.70933,1.0495 3.38293,7.13999 -0.11819,2.20546 -0.11567,4.00993 0.006,4.00993 0.12128,0 0.48317,-0.91281 0.80421,-2.02847 0.8885,-3.08769 2.94966,-7.9326 3.73997,-8.79108 0.95809,-1.04072 2.43014,-1.60157 3.84502,-1.46495 0.88111,0.0851 1.38169,0.4183 1.99071,1.32512 0.80564,1.19959 0.81136,1.28422 0.58407,8.64306 -0.22538,7.29682 -0.21547,7.44919 0.54617,8.40174 0.42665,0.53357 0.97148,0.97014 1.21074,0.97014 0.69942,0 2.77111,-1.67224 4.01168,-3.23818 l 1.14653,-1.44723 v -9.22002 c 0,-12.77097 0.96465,-19.69101 3.49886,-25.09951 2.14292,-4.57343 4.55972,-6.50339 8.14388,-6.50339 3.53028,0 4.58503,1.75113 4.58503,7.61222 0,2.38647 -0.26373,5.00469 -0.73662,7.31299 -0.96418,4.70631 -3.82041,13.25874 -5.62992,16.85768 -0.79,1.57124 -1.30228,2.77393 -1.1384,2.67265 0.16388,-0.10129 1.55387,-2.19237 3.08888,-4.64686 3.01238,-4.81685 4.07035,-5.94539 6.10271,-6.50983 2.73058,-0.75835 4.36952,-0.21059 5.3972,1.80383 1.37241,2.69014 0.74653,5.28958 -2.61182,10.84749 -2.28945,3.78893 -2.88515,5.51887 -2.36843,6.87794 0.43593,1.14659 0.73528,1.1433 2.89425,-0.0318 1.96753,-1.07086 3.53277,-3.01674 5.27577,-6.55875 1.6266,-3.30546 2.25386,-3.12716 2.23853,0.63634 -0.01,2.40708 -0.17255,3.1571 -1.12646,5.19154 -1.29163,2.75466 -3.96596,5.62134 -6.18303,6.62771 -2.06644,0.938 -6.01962,0.94779 -7.54332,0.0187 -1.49216,-0.90987 -2.41289,-3.32516 -2.14141,-5.61738 0.27267,-2.3023 1.3333,-5.21585 2.57531,-7.07438 1.92544,-2.88122 2.02685,-3.09555 1.77511,-3.75158 -0.51358,-1.33838 -2.00066,1.08612 -5.53748,9.02813 -2.14079,4.8072 -3.87489,8.22754 -4.41574,8.70957 -1.0873,0.96909 -2.93429,1.04334 -4.02302,0.16175 -0.42927,-0.34761 -0.97183,-1.38554 -1.20567,-2.30652 l -0.42517,-1.6745 -1.14487,1.76683 c -2.04559,3.15688 -5.08573,5.01636 -7.29492,4.46189 -2.67357,-0.67102 -4.0089,-3.90355 -4.35452,-10.54124 l -0.21835,-4.19362 -2.63985,6.96929 c -1.45192,3.83312 -2.93188,7.34055 -3.2888,7.7943 -0.50211,0.63832 -0.99526,0.825 -2.17948,0.825 -1.276,0 -1.68243,-0.18051 -2.44384,-1.0854 -0.50232,-0.59697 -0.91758,-1.35103 -0.9228,-1.6757 -0.007,-0.42904 -0.27191,-0.28716 -0.97013,0.51939 -3.49625,4.03863 -7.97589,4.7013 -10.2799,1.52071 l -0.98269,-1.35657 -1.36666,1.39959 c -3.65299,3.741 -9.25038,4.24026 -11.88416,1.06001 l -0.77732,-0.9386 -2.58475,1.85448 c -4.693206,3.36723 -7.760666,3.7141 -10.309006,1.16575 -2.66093,-2.66093 -3.08639,-6.77324 -1.28699,-12.43958 0.47578,-1.49825 0.81262,-2.72408 0.74854,-2.72408 -0.0641,0 -0.98263,1.30969 -2.04121,2.91042 -2.30621,3.48735 -4.39081,7.59703 -5.68145,11.20069 -1.36892,3.82222 -1.74121,4.29603 -3.27279,4.16516 -2.47659,-0.2116 -2.97357,-1.93841 -3.69431,-12.83621 -0.32432,-4.90393 -0.32692,-8.32833 -0.0112,-14.81667 0.22582,-4.64127 0.55173,-9.01212 0.72424,-9.71301 l 0.31366,-1.27433 -2.86231,-0.22285 c -3.81799,-0.29726 -7.70793,-0.27691 -8.1999,0.0429 -0.21929,0.14255 -0.51335,1.4498 -0.65348,2.90501 -0.43234,4.49001 -5.45385,37.05002 -5.81927,37.73282 -1.23635,2.31014 -4.30891,3.1881 -6.13375,1.75269 z m 60.883516,-14.46092 c 0.74177,-1.48347 1.08109,-2.95599 1.49867,-6.50376 0.2969,-2.52236 0.63551,-5.19379 0.75248,-5.93652 l 0.21267,-1.35042 -1.00579,0.52657 c -3.36331,1.7608 -6.00174,7.38366 -5.69859,12.14451 0.11755,1.84604 0.30087,2.42016 0.93735,2.93555 1.19106,0.96446 2.1866,0.41716 3.30321,-1.81593 z m -28.985136,-21.98877 c 0.64626,-2.24152 1.07283,-4.17768 0.94793,-4.30258 -0.1249,-0.1249 -0.93214,-0.30656 -1.79387,-0.40369 l -1.56677,-0.1766 -0.41088,1.89367 c -0.36858,1.69864 -1.08233,11.56398 -1.03032,14.24088 0.0217,1.11635 1.70483,-3.79766 3.85391,-11.25168 z M -37.197764,116.151 c 1.36741,-5.18791 1.4963,-6.30266 0.76134,-6.58469 -1.51543,-0.58153 -3.26239,3.48633 -4.19134,9.75969 -0.27296,1.84326 -0.58363,5.97076 -0.69039,9.17221 l -0.1941,5.82084 1.71557,-7.40833 c 0.94356,-4.07459 2.11308,-8.91646 2.59892,-10.75972 z m -76.859116,3.2301 c 0.27519,-0.44526 -0.1867,-2.87733 -0.54645,-2.87733 -0.3091,0 -1.70869,2.0718 -1.71123,2.53311 -7e-4,0.13202 0.35587,0.30884 0.79243,0.39293 0.43657,0.0841 0.90345,0.1745 1.03752,0.20092 0.13407,0.0264 0.32655,-0.0859 0.42773,-0.24963 z M 56.513079,165.87736 C 40.103509,164.87175 21.834186,159.39524 9.6739862,151.83664 l -2.95042,-1.83394 -2.57689,0.88942 c -3.44815001,1.19014 -6.12877,1.18882 -8.52285,-0.004 -4.99086,-2.48706 -5.8897002,-9.34243 -1.51323,-11.54125 2.55583,-1.28409 7.10566,-0.53456 10.89008,1.79402 l 1.6979,1.04473 1.25149,-2.1693 c 1.70566,-2.95656 2.6020498,-4.78862 3.4439998,-7.03894 l 0.71225,-1.90364 -1.63576,-2.96336 c -4.5535698,-8.24952 -8.1482598,-12.5471 -11.12726981,-13.30326 -1.26936999,-0.3222 -1.74959999,-0.28032 -2.96856999,0.25889 -1.81918,0.80471 -2.9767,2.37954 -2.9767,4.04986 0,1.57005 0.87321,2.50754 2.82517,3.03315 1.2879,0.34679 1.43893,0.49689 1.34153,1.33335 -0.33622,2.88743 -7.14175,2.0641 -10.3641002,-1.25386 -3.33534,-3.43428 -2.20039,-9.27898 2.32951,-11.99632 2.5878202,-1.55236 4.2074002,-1.97144 7.6318802,-1.97481 2.60735999,-0.002 3.12850999,0.11935 5.46805,1.27913 3.41721,1.69401 6.33691,4.63096 9.8277498,9.8858 1.51747,2.28428 2.8287,4.34803 2.91383,4.58611 0.0851,0.23807 0.24049,0.35348 0.34525,0.25647 0.15354,-0.1422 4.75807,-11.66716 6.76444,-16.93116 0.93704,-2.45844 4.07945,-3.5855 5.92988,-2.12683 0.81495,0.64243 0.97014,1.03292 0.97014,2.44125 0,2.04531 -0.64022,3.9307 -5.46285,16.08757 -4.25607,10.72871 -6.76884,15.86064 -9.5592,19.52308 -1.0512,1.37976 -1.91128,2.57079 -1.91128,2.64676 0,0.41778 7.83563,3.92917 11.46527,5.13795 8.99194,2.99458 16.075043,4.03374 27.516673,4.03694 20.3484,0.006 38.28519,-3.89858 47.90817,-10.4281 2.575561,-1.74761 4.118451,-2.3958 5.702721,-2.3958 1.0983,0 1.24605,0.10597 1.24605,0.89367 0,2.09462 -3.54528,7.62437 -6.772921,10.56406 -10.04928,9.15273 -24.66463,13.28677 -43.0009,12.16308 z M 0.58767619,146.81143 1.9565062,146.43136 0.26927619,145.23179 c -0.92797,-0.65976 -2.18059999,-1.29213 -2.78360999,-1.40526 -1.45142,-0.27229 -3.02932,0.34694 -3.02932,1.18883 0,1.76183 3.04361,2.65341 6.13132999,1.79607 z M 31.321616,145.12616 c -1.91368,-0.87156 -3.8007,-3.0555 -4.80189,-5.55749 -0.72115,-1.80214 -0.831,-2.67698 -0.83637,-6.66073 -0.006,-4.37846 0.0407,-4.67861 1.02819,-6.62887 1.89325,-3.73891 5.27852,-6.08376 9.528423,-6.59998 4.34525,-0.52781 8.77847,0.71787 12.02633,3.37924 1.35074,1.10683 1.57616,1.19372 1.57616,0.60752 0,-1.43166 1.0942,-4.27951 1.9875,-5.17281 0.74426,-0.74426 1.26633,-0.93093 2.60352,-0.93093 0.91992,0 1.83501,0.19843 2.03351,0.44097 0.2475,0.30238 0.16883,3.04641 -0.25032,8.73125 -0.50481,6.84659 -0.53256,8.48993 -0.15934,9.4368 0.24855,0.63059 0.68595,1.14653 0.97201,1.14653 0.86106,0 2.61965,-1.71081 3.00357,-2.92196 0.19788,-0.62424 0.69003,-4.61761 1.09368,-8.87415 0.40364,-4.25654 0.90003,-7.93936 1.1031,-8.18404 0.60366,-0.72736 2.7409,-1.27279 4.03564,-1.02989 1.81901,0.34125 2.055,1.10709 1.79366,5.82087 -0.71967,12.98071 -0.71716,12.52981 -0.0733,13.17364 0.77196,0.77195 0.96642,0.76018 2.09396,-0.12674 0.75411,-0.59319 0.92952,-1.0259 0.92952,-2.29306 0,-1.40331 0.084,-1.56189 0.82726,-1.56189 1.40332,0 1.99496,1.03865 1.99496,3.50224 0,3.86883 -1.46428,5.62718 -5.36794,6.44598 -2.67507,0.56111 -4.72354,-0.11407 -5.90655,-1.94682 l -0.86961,-1.34722 -0.69982,0.99444 c -1.05619,1.50082 -3.27004,3.56329 -4.51702,4.20813 -1.59747,0.82608 -4.29477,0.79576 -5.23916,-0.0589 -1.35893,-1.22982 -1.85684,-2.70962 -2.12981,-6.32981 -0.35493,-4.70731 -1.33512,-7.74412 -3.17377,-9.83294 -1.37199,-1.55866 -2.68744,-2.55603 -2.9823,-2.26117 -0.0736,0.0736 0.24939,1.08277 0.71784,2.24253 2.25901,5.59273 1.08523,12.39115 -2.78959,16.15704 -2.64268,2.56839 -6.549613,3.3996 -9.552003,2.03221 z m 6.680163,-7.25817 c 0.82269,-1.62856 1.06642,-2.63969 1.18504,-4.91625 0.17394,-3.33819 -0.29147,-5.40432 -1.55583,-6.90693 -1.16705,-1.38695 -2.07852,-1.35745 -3.464523,0.11214 -1.51497,1.60633 -2.31568,4.26356 -2.31568,7.68477 0,3.81987 1.00434,5.95458 2.99861,6.37355 1.339413,0.28139 2.116933,-0.29756 3.152383,-2.34728 z m 41.51284,2.48514 c -2.84342,-1.57599 -2.16271,-6.76601 1.03172,-7.86625 2.47882,-0.85377 5.13626,-0.28289 5.97455,1.28346 0.51294,0.95844 0.45075,3.36053 -0.12253,4.73258 -0.84733,2.02795 -4.69647,3.06252 -6.88374,1.85021 z m 2.11391,-11.81624 c -0.39676,-0.2584 -0.45648,-1.20665 -0.30569,-4.85421 0.22098,-5.34538 3.85715,-27.789446 4.82089,-29.756676 1.19421,-2.43766 6.15978,-3.84826 7.14061,-2.02848 1.31657,2.44268 -0.37673,10.823456 -5.04286,24.959026 -1.95347,5.91785 -3.73271,10.94771 -3.95387,11.17748 -0.57359,0.59593 -2.07901,0.88062 -2.65908,0.50286 z"
       id="path826"
       inkscape:connector-curvature="0" />
  </g>
</svg>
